# xmcd
#
# Track frame offsets: 
#        150
#        19018
#        32943
#        53581
#        69091
#        86015
#        105254
#        125027
#        134652
#        155702
#        179165
#        190638
#        204222
#
# Disc length: 3068 seconds
#
# Revision: 0
# Processed by: cddbd v1.5PL3 Copyright (c) Steve Scherf et al.
# Submitted via: ExactAudioCopy v0.95a4
#
DISCID=af0bfa0d
DTITLE=古筝 - 古筝-平湖秋月
DYEAR=1900
DGENRE=General Country
TTITLE0=平湖秋月
TTITLE1=高山流水
TTITLE2=渔舟唱晚
TTITLE3=浏阳河
TTITLE4=风摆翠竹
TTITLE5=将军令
TTITLE6=山丹丹开花红艳艳
TTITLE7=一点金
TTITLE8=东湖渔歌
TTITLE9=寒鸦戏水
TTITLE10=出水莲
TTITLE11=打雁
TTITLE12=春天来了
EXTD=
EXTT0=
EXTT1=
EXTT2=
EXTT3=
EXTT4=
EXTT5=
EXTT6=
EXTT7=
EXTT8=
EXTT9=
EXTT10=
EXTT11=
EXTT12=
PLAYORDER=
